<svg width="39" height="52" viewBox="0 0 39 52" fill="none" xmlns="http://www.w3.org/2000/svg">
<path d="M18.9396 0.567354C18.9468 0.506641 19.0532 0.506641 19.0604 0.567355C19.3144 2.7297 20.4513 10.5094 23.971 14.029C27.4906 17.5487 35.2703 18.6856 37.4326 18.9396C37.4934 18.9468 37.4934 19.0532 37.4326 19.0604C35.2703 19.3144 27.4906 20.4513 23.971 23.971C20.4513 27.4906 19.3144 35.2703 19.0604 37.4326C19.0532 37.4934 18.9468 37.4934 18.9396 37.4326C18.6856 35.2703 17.5487 27.4906 14.029 23.971C10.5094 20.4513 2.72969 19.3144 0.567354 19.0604C0.506641 19.0532 0.506641 18.9468 0.567355 18.9396C2.7297 18.6856 10.5094 17.5487 14.029 14.029C17.5487 10.5094 18.6856 2.72969 18.9396 0.567354Z" fill="#B2B0B0"/>
<path d="M28.9343 32.5696C28.9423 32.509 29.0577 32.509 29.0657 32.5696C29.2525 33.9823 29.8896 37.657 31.6163 39.3837C33.343 41.1104 37.0177 41.7475 38.4304 41.9343C38.491 41.9423 38.491 42.0577 38.4304 42.0657C37.0177 42.2525 33.343 42.8896 31.6163 44.6163C29.8896 46.343 29.2525 50.0177 29.0657 51.4304C29.0577 51.491 28.9423 51.491 28.9343 51.4304C28.7475 50.0177 28.1104 46.343 26.3837 44.6163C24.657 42.8896 20.9823 42.2525 19.5696 42.0657C19.509 42.0577 19.509 41.9423 19.5696 41.9343C20.9823 41.7475 24.657 41.1104 26.3837 39.3837C28.1104 37.657 28.7475 33.9823 28.9343 32.5696Z" fill="#B2B0B0"/>
</svg>
